<svg xmlns="http://www.w3.org/2000/svg" xmlns:xlink="http://www.w3.org/1999/xlink" version="1.1" width="1608" height="1248"><g id="Context Diagram"><g id="EMAG"><rect width="968" height="824" rx="8" ry="8" fill-opacity="0.1" fill="#ffffff" stroke-opacity="1" stroke-width="2" stroke="#4c5152" opacity="1" x="608" y="32"></rect><text font-family="IBM Plex Sans Medium, Arial, sans-serif" font-size="15" font-weight="500" fill="#ffffff" opacity="1" x="624" y="63.375"><tspan dy="0" x="624">EMAG</tspan></text><g id="Group" opacity="1"><text font-family="Courier New, monospace" font-size="12" text-anchor="middle" fill="#adb3b3" x="1092" y="844.6552734375"><tspan dy="0" x="1092">Group</tspan></text></g></g><g id="realizeaza"><polyline points="552,236 576,236 589.77,234.83 599.92,231.53 607.02,226.43 611.61,219.86 614.26,212.15 615.51,203.62 616.49,176.38 617.74,167.85 620.39,160.14 624.98,153.57 632.08,148.47 642.23,145.17000000000002 656,144 680,144" fill="none" stroke-width="1" stroke="#adb3b3" opacity="1"></polyline></g><g id="realizeaza"><rect width="77.29599999999999" height="22.2" x="577.352" y="178.9" rx="4" ry="4" fill-opacity="0.8" fill="#323435" stroke-opacity="1" stroke-width="1" stroke="#434647" opacity="0.8"></rect><g opacity="1" fill="#e5e7e8"><text font-family="IBM Plex Sans Medium, Arial, sans-serif" font-size="14" text-anchor="middle" x="616" y="195.24999999999997"><tspan dy="0" x="616">realizeaza</tspan></text></g></g><g id="intra in cont"><polyline points="552,236 576,236 586.22,236.7 595,238.75 602.43,242.07 608.59,246.57 613.57,252.17 617.47,258.8 620.35,266.37 622.32,274.78999999999996 623.46,283.99 623.6,304.4 622.78,315.44 619.78,338.78 606.23,413.07 602.53,437.07 600.4,459.6 600.14,470.11 601.68,489.21 603.65,497.63 606.53,505.2 610.43,511.83 615.41,517.4300000000001 621.57,521.9300000000001 629,525.25 637.78,527.3 648,528 672,528" fill="none" stroke-width="1" stroke="#adb3b3" opacity="1"></polyline></g><g id="intra in cont"><rect width="88.64999999999999" height="22.2" x="567.5759544147913" y="370.8781030645862" rx="4" ry="4" fill-opacity="0.8" fill="#323435" stroke-opacity="1" stroke-width="1" stroke="#434647" opacity="0.8"></rect><g opacity="1" fill="#e5e7e8"><text font-family="IBM Plex Sans Medium, Arial, sans-serif" font-size="14" text-anchor="middle" x="611.9009544147914" y="387.2281030645862"><tspan dy="0" x="611.9009544147914">intra in cont</tspan></text></g></g><g id="realizeaza"><polyline points="288,484 320.65,484.38 337.54,487.35 353.92,493.02 361.93,496.78 377.63,505.96 385.34,511.32 400.5,523.38 422.7,544.3 451.56,576.02 501.3,635.61 522.79,660.27 544.64,683 567.04,702.87 582.37,714.04 590.17,718.9 606.08,726.98 614.21,730.13 630.83,734.49 639.35,735.62 672,736" fill="none" stroke-width="1" stroke="#adb3b3" opacity="1"></polyline></g><g id="realizeaza"><rect width="77.29599999999999" height="22.2" x="441.3101209547036" y="598.9417938820021" rx="4" ry="4" fill-opacity="0.8" fill="#323435" stroke-opacity="1" stroke-width="1" stroke="#434647" opacity="0.8"></rect><g opacity="1" fill="#e5e7e8"><text font-family="IBM Plex Sans Medium, Arial, sans-serif" font-size="14" text-anchor="middle" x="479.95812095470365" y="615.2917938820023"><tspan dy="0" x="479.95812095470365">realizeaza</tspan></text></g></g><g id="intra in cont"><polyline points="288,484 334.11,484.44 375.81,487.63 395.63,490.16 424.40999999999997,494.84 526.19,515.4300000000001 564.37,521.8399999999999 594.34,525.4300000000001 615.17,527.03 636.83,527.89 672,528" fill="none" stroke-width="1" stroke="#adb3b3" opacity="1"></polyline></g><g id="intra in cont"><rect width="88.64999999999999" height="22.2" x="435.6622499582204" y="494.98322633758846" rx="4" ry="4" fill-opacity="0.8" fill="#323435" stroke-opacity="1" stroke-width="1" stroke="#434647" opacity="0.8"></rect><g opacity="1" fill="#e5e7e8"><text font-family="IBM Plex Sans Medium, Arial, sans-serif" font-size="14" text-anchor="middle" x="479.9872499582204" y="511.3332263375885"><tspan dy="0" x="479.9872499582204">intra in cont</tspan></text></g></g><g id="intra in cont"><polyline points="584,980 608,980 615.27,979.46 621.75,977.89 627.47,975.31 632.47,971.78 636.77,967.34 640.41,962.04 643.42,955.9 647.7,941.34 649.02,932.99 650.23,914.39 649.71,893.53 647.75,870.77 640.51,820.9 617.79,700.22 611.41,661.56 608.25,637.23 606.29,614.47 605.77,593.61 606.14,584 608.3,566.6600000000001 612.58,552.1 615.59,545.96 619.23,540.6600000000001 623.53,536.22 628.53,532.69 634.25,530.11 640.73,528.54 648,528 672,528" fill="none" stroke-width="1" stroke="#adb3b3" opacity="1"></polyline></g><g id="intra in cont"><rect width="88.64999999999999" height="22.2" x="583.5925533856605" y="742.9137122615111" rx="4" ry="4" fill-opacity="0.8" fill="#323435" stroke-opacity="1" stroke-width="1" stroke="#434647" opacity="0.8"></rect><g opacity="1" fill="#e5e7e8"><text font-family="IBM Plex Sans Medium, Arial, sans-serif" font-size="14" text-anchor="middle" x="627.9175533856605" y="759.263712261511"><tspan dy="0" x="627.9175533856605">intra in cont</tspan></text></g></g><g id="realizeaza"><polyline points="584,980 615.53,979.79 639.12,976.81 664.07,970.6 690.2,961.6 726.57,945.97 764.3,927.11 802.97,906.01 891.26,855.5 930.11,833.99 968.11,814.48 995.81,801.74 1013.8,794.4 1031.34,788.11 1048.38,783 1064.88,779.19 1088.47,776.21 1120,776" fill="none" stroke-width="1" stroke="#adb3b3" opacity="1"></polyline></g><g id="realizeaza"><rect width="77.29599999999999" height="22.2" x="813.3418809112287" y="866.8661197777079" rx="4" ry="4" fill-opacity="0.8" fill="#323435" stroke-opacity="1" stroke-width="1" stroke="#434647" opacity="0.8"></rect><g opacity="1" fill="#e5e7e8"><text font-family="IBM Plex Sans Medium, Arial, sans-serif" font-size="14" text-anchor="middle" x="851.9898809112287" y="883.2161197777081"><tspan dy="0" x="851.9898809112287">realizeaza</tspan></text></g></g><g id="utilizat de"><polyline points="952,1152 980.97,1151.69 990.39,1149.26 994.8399999999999,1147.17 1003.28,1141.31 1011.0799999999999,1133.31 1018.27,1123.28 1027.98,1104.7 1033.76,1090.12 1039.01,1073.94 1048.01,1037.19 1055.18,995.39 1060.7,949.47 1064.74,900.39 1068,836 1069.6,769.95 1069.92,717.14 1069.42,652.71 1064.3,447.98 1064,400" fill="none" stroke-width="1" stroke="#adb3b3" opacity="1"></polyline></g><g id="utilizat de"><rect width="75.61599999999999" height="22.2" x="1030.9767239150135" y="792.5056158833484" rx="4" ry="4" fill-opacity="0.8" fill="#323435" stroke-opacity="1" stroke-width="1" stroke="#434647" opacity="0.8"></rect><g opacity="1" fill="#e5e7e8"><text font-family="IBM Plex Sans Medium, Arial, sans-serif" font-size="14" text-anchor="middle" x="1068.7847239150135" y="808.8556158833483"><tspan dy="0" x="1068.7847239150135">utilizat de</tspan></text></g></g><g id="utilizat de"><polyline points="1464,968 1488,968 1500.01,966.57 1505.12,964.82 1509.65,962.4 1513.62,959.34 1517.06,955.66 1522.3899999999999,946.52 1524.31,941.1 1526.77,928.67 1527.5,914.26 1525.6599999999999,889.3 1522.6799999999998,870.68 1515.94,840.2 1510.1399999999999,818.43 1499.8200000000002,784.01 1479.52,723.39 1426.98,575.5899999999999 1415.6599999999999,541.31 1406.03,509.24 1398.55,479.95 1393.72,454.01 1392.2,438.87 1392,408" fill="none" stroke-width="1" stroke="#adb3b3" opacity="1"></polyline></g><g id="utilizat de"><rect width="75.61599999999999" height="22.2" x="1436.4292634863714" y="697.4291614633744" rx="4" ry="4" fill-opacity="0.8" fill="#323435" stroke-opacity="1" stroke-width="1" stroke="#434647" opacity="0.8"></rect><g opacity="1" fill="#e5e7e8"><text font-family="IBM Plex Sans Medium, Arial, sans-serif" font-size="14" text-anchor="middle" x="1474.2372634863714" y="713.7791614633743"><tspan dy="0" x="1474.2372634863714">utilizat de</tspan></text></g></g><g id="Foloseste (pentru comenzi)"><polyline points="936,144 1081.5,143.5 1128.8899999999999,144.59 1164.96,146.4 1200.7,149.32 1235.4099999999999,153.57999999999998 1268.3899999999999,159.43 1298.9299999999998,167.07999999999998 1326.33,176.78 1342.5,184.5 1356.76,193.3 1363.1,198.13 1374.0900000000001,208.69 1382.65,220.51 1385.94,226.91 1390.45,240.74 1392,256 1392,280" fill="none" stroke-width="1" stroke="#adb3b3" opacity="1"></polyline></g><g id="Foloseste (pentru comenzi)"><rect width="124.96600000000001" height="38.2" x="1137.070416710353" y="130.126322797824" rx="4" ry="4" fill-opacity="0.8" fill="#323435" stroke-opacity="1" stroke-width="1" stroke="#434647" opacity="0.8"></rect><g opacity="1" fill="#e5e7e8"><text font-family="IBM Plex Sans Medium, Arial, sans-serif" font-size="14" text-anchor="middle" x="1199.5534167103528" y="146.476322797824"><tspan dy="0" x="1199.5534167103528">Foloseste (pentru</tspan></text><text font-family="IBM Plex Sans Medium, Arial, sans-serif" font-size="14" text-anchor="middle" x="1199.5534167103528" y="162.47632279782403"><tspan dy="0" x="1199.5534167103528">comenzi)</tspan></text></g></g><g id="Foloseste (pentru comenzi)"><polyline points="936,176 999.3,175.79000000000002 1019.5699999999999,176.59 1028.06,177.69 1035.52,179.45 1042,182 1047.54,185.49 1052.19,190.06 1055.99,195.85 1059,203 1061.26,211.65 1062.81,221.94 1063.71,234.01 1064,272" fill="none" stroke-width="1" stroke="#adb3b3" opacity="1"></polyline></g><g id="Foloseste (pentru comenzi)"><rect width="124.96600000000001" height="38.2" x="975.057963229486" y="161.14528645604764" rx="4" ry="4" fill-opacity="0.8" fill="#323435" stroke-opacity="1" stroke-width="1" stroke="#434647" opacity="0.8"></rect><g opacity="1" fill="#e5e7e8"><text font-family="IBM Plex Sans Medium, Arial, sans-serif" font-size="14" text-anchor="middle" x="1037.540963229486" y="177.49528645604764"><tspan dy="0" x="1037.540963229486">Foloseste (pentru</tspan></text><text font-family="IBM Plex Sans Medium, Arial, sans-serif" font-size="14" text-anchor="middle" x="1037.540963229486" y="193.49528645604764"><tspan dy="0" x="1037.540963229486">comenzi)</tspan></text></g></g><g id="Utilizeaza"><polyline points="1248,712 1248,688 1246.63,672.2 1243,663.95 1237.88,660.72 1226.13,659.28 1221,656.05 1217.38,647.8 1216,632 1216,608" fill="none" stroke-width="1" stroke="#adb3b3" opacity="1"></polyline></g><g id="Utilizeaza"><rect width="74.888" height="22.2" x="1194.558367583088" y="648.8996773889061" rx="4" ry="4" fill-opacity="0.8" fill="#323435" stroke-opacity="1" stroke-width="1" stroke="#434647" opacity="0.8"></rect><g opacity="1" fill="#e5e7e8"><text font-family="IBM Plex Sans Medium, Arial, sans-serif" font-size="14" text-anchor="middle" x="1232.002367583088" y="665.2496773889062"><tspan dy="0" x="1232.002367583088">Utilizeaza</tspan></text></g></g><g id="Utilizeaza"><polyline points="928,528 969.56,528.31 992.11,530.5 1003.9,534.02 1017.1,539.85 1023.89,541.5 1033.37,542.81 1046.44,543.69 1088,544" fill="none" stroke-width="1" stroke="#adb3b3" opacity="1"></polyline></g><g id="Utilizeaza"><rect width="74.888" height="22.2" x="970.6305059906264" y="524.76374014586" rx="4" ry="4" fill-opacity="0.8" fill="#323435" stroke-opacity="1" stroke-width="1" stroke="#434647" opacity="0.8"></rect><g opacity="1" fill="#e5e7e8"><text font-family="IBM Plex Sans Medium, Arial, sans-serif" font-size="14" text-anchor="middle" x="1008.0745059906263" y="541.1137401458601"><tspan dy="0" x="1008.0745059906263">Utilizeaza</tspan></text></g></g><g id="Utilizeaza"><polyline points="1328,408 1328,432 1326.5700000000002,443.08 1322.56,450.09 1316.35,453.67 1308.35,454.44 1298.96,453.02 1288.58,450.03 1255.42,437.97 1245.04,434.98 1235.65,433.56 1227.65,434.33 1221.44,437.91 1217.4299999999998,444.92 1216,456 1216,480" fill="none" stroke-width="1" stroke="#adb3b3" opacity="1"></polyline></g><g id="Utilizeaza"><rect width="74.888" height="22.2" x="1234.556" y="432.9" rx="4" ry="4" fill-opacity="0.8" fill="#323435" stroke-opacity="1" stroke-width="1" stroke="#434647" opacity="0.8"></rect><g opacity="1" fill="#e5e7e8"><text font-family="IBM Plex Sans Medium, Arial, sans-serif" font-size="14" text-anchor="middle" x="1272" y="449.25"><tspan dy="0" x="1272">Utilizeaza</tspan></text></g></g><g id="Trimite cereri"><polyline points="928,736 969.38,736.1 994.65,736.83 1010.69,738.07 1037.31,741.93 1053.35,743.17 1078.62,743.9 1120,744" fill="none" stroke-width="1" stroke="#adb3b3" opacity="1"></polyline></g><g id="Trimite cereri"><rect width="98.492" height="22.2" x="974.754" y="728.9" rx="4" ry="4" fill-opacity="0.8" fill="#323435" stroke-opacity="1" stroke-width="1" stroke="#434647" opacity="0.8"></rect><g opacity="1" fill="#e5e7e8"><text font-family="IBM Plex Sans Medium, Arial, sans-serif" font-size="14" text-anchor="middle" x="1024" y="745.2500000000001"><tspan dy="0" x="1024">Trimite cereri</tspan></text></g></g><g id="Trimite cereri"><polyline points="808,208 808.3,238.35 809.19,244.82 812.64,258.07 815.16,264.85 821.72,278.69 830.14,292.9 840.27,307.43 851.95,322.25 865.03,337.35 879.33,352.68 902.75,376.05 945.7,415.74 1037.3,496.24 1072.56,528.1700000000001 1105.1,559.5799999999999 1133.67,590.23 1151.73,612.57 1161.8600000000001,627.1 1170.28,641.31 1176.8400000000001,655.15 1181.3600000000001,668.61 1183.7,681.65 1184,712" fill="none" stroke-width="1" stroke="#adb3b3" opacity="1"></polyline></g><g id="Trimite cereri"><rect width="98.492" height="22.2" x="946.7747158175846" y="448.86289981785546" rx="4" ry="4" fill-opacity="0.8" fill="#323435" stroke-opacity="1" stroke-width="1" stroke="#434647" opacity="0.8"></rect><g opacity="1" fill="#e5e7e8"><text font-family="IBM Plex Sans Medium, Arial, sans-serif" font-size="14" text-anchor="middle" x="996.0207158175846" y="465.2128998178555"><tspan dy="0" x="996.0207158175846">Trimite cereri</tspan></text></g></g><a href="https://app.icepanel.io/landscapes/BpYYe5KSf3H1N1RYF9RQ/versions/latest/model/objects?object=4xHTtyEmkf&amp;focus=4xHTtyEmkf" id="Sistem Livrari" target="_blank"><rect width="256" height="128" rx="8" ry="8" fill-opacity="0.8" fill="#1f2121" stroke-opacity="1" stroke-width="1" stroke="#434647" opacity="1" x="696" y="1088"></rect><text font-family="IBM Plex Sans Medium, Arial, sans-serif" font-size="24" font-weight="500" text-anchor="middle" fill="#ffffff" opacity="1" x="824" y="1157"><tspan dy="0" x="824">Sistem Livrari</tspan></text><g id="System" opacity="1"><text font-family="Courier New, monospace" font-size="12" text-anchor="middle" fill="#adb3b3" x="824" y="1204.6552734375"><tspan dy="0" x="824">System</tspan></text></g></a><a href="https://app.icepanel.io/landscapes/BpYYe5KSf3H1N1RYF9RQ/versions/latest/model/objects?object=fKwoN838E7&amp;focus=fKwoN838E7" id="Sistem Plati" target="_blank"><rect width="256" height="128" rx="8" ry="8" fill-opacity="0.8" fill="#1f2121" stroke-opacity="1" stroke-width="1" stroke="#434647" opacity="1" x="1208" y="904"></rect><text font-family="IBM Plex Sans Medium, Arial, sans-serif" font-size="24" font-weight="500" text-anchor="middle" fill="#ffffff" opacity="1" x="1336" y="973.0000000000001"><tspan dy="0" x="1336">Sistem Plati</tspan></text><g id="System" opacity="1"><text font-family="Courier New, monospace" font-size="12" text-anchor="middle" fill="#adb3b3" x="1336" y="1020.6552734375"><tspan dy="0" x="1336">System</tspan></text></g></a><a href="https://app.icepanel.io/landscapes/BpYYe5KSf3H1N1RYF9RQ/versions/latest/model/objects?object=t01p8EAEQY&amp;focus=t01p8EAEQY" id="Autentificare si acces" target="_blank"><rect width="256" height="128" rx="8" ry="8" fill-opacity="0.8" fill="#1f2121" stroke-opacity="1" stroke-width="1" stroke="#434647" opacity="1" x="672" y="464"></rect><text font-family="IBM Plex Sans Medium, Arial, sans-serif" font-size="24" font-weight="500" text-anchor="middle" fill="#ffffff" opacity="1" x="800" y="515"><tspan dy="0" x="800">Autentificare si acces</tspan></text><g opacity="1"><text font-family="IBM Plex Sans, Arial, sans-serif" font-size="11" text-anchor="middle" fill="#adb3b3" x="800" y="541.6249999999999"><tspan dy="0" x="800">Intrare/creare cont, vizualizare detalii produs,</tspan></text><text font-family="IBM Plex Sans, Arial, sans-serif" font-size="11" text-anchor="middle" fill="#adb3b3" x="799.9999999999999" y="554.6249999999999"><tspan dy="0" x="799.9999999999999">cautari de produse recente/populare</tspan></text></g><g id="System" opacity="1"><text font-family="Courier New, monospace" font-size="12" text-anchor="middle" fill="#adb3b3" x="800" y="580.6552734375"><tspan dy="0" x="800">System</tspan></text></g></a><a href="https://app.icepanel.io/landscapes/BpYYe5KSf3H1N1RYF9RQ/versions/latest/model/objects?object=d75DxhQlZY&amp;focus=d75DxhQlZY" id="Actiuni client" target="_blank"><rect width="256" height="128" rx="8" ry="8" fill-opacity="0.8" fill="#1f2121" stroke-opacity="1" stroke-width="1" stroke="#434647" opacity="1" x="680" y="80"></rect><text font-family="IBM Plex Sans Medium, Arial, sans-serif" font-size="24" font-weight="500" text-anchor="middle" fill="#ffffff" opacity="1" x="808" y="131"><tspan dy="0" x="808">Actiuni client</tspan></text><g opacity="1"><text font-family="IBM Plex Sans, Arial, sans-serif" font-size="14" text-anchor="middle" fill="#adb3b3" x="808" y="165.24999999999997"><tspan dy="0" x="808">Gestionare comenzi, cos si review-uri</tspan></text></g><g id="System" opacity="1"><text font-family="Courier New, monospace" font-size="12" text-anchor="middle" fill="#adb3b3" x="808" y="196.6552734375"><tspan dy="0" x="808">System</tspan></text></g></a><a href="https://app.icepanel.io/landscapes/BpYYe5KSf3H1N1RYF9RQ/versions/latest/model/objects?object=GM95aWx0pc&amp;focus=GM95aWx0pc" id="Procesare livrari" target="_blank"><rect width="256" height="128" rx="8" ry="8" fill-opacity="0.8" fill="#1f2121" stroke-opacity="1" stroke-width="1" stroke="#434647" opacity="1" x="936" y="272"></rect><text font-family="IBM Plex Sans Medium, Arial, sans-serif" font-size="24" font-weight="500" text-anchor="middle" fill="#ffffff" opacity="1" x="1064" y="323"><tspan dy="0" x="1064">Procesare livrari</tspan></text><g opacity="1"><text font-family="IBM Plex Sans, Arial, sans-serif" font-size="14" text-anchor="middle" fill="#adb3b3" x="1064" y="357.25"><tspan dy="0" x="1064">Generare AWB, livrari de colete</tspan></text></g><g id="System" opacity="1"><text font-family="Courier New, monospace" font-size="12" text-anchor="middle" fill="#adb3b3" x="1064" y="388.6552734375"><tspan dy="0" x="1064">System</tspan></text></g></a><a href="https://app.icepanel.io/landscapes/BpYYe5KSf3H1N1RYF9RQ/versions/latest/model/objects?object=uGhjXyknre&amp;focus=uGhjXyknre" id="Actiuni plata" target="_blank"><rect width="256" height="128" rx="8" ry="8" fill-opacity="0.8" fill="#1f2121" stroke-opacity="1" stroke-width="1" stroke="#434647" opacity="1" x="1264" y="280"></rect><text font-family="IBM Plex Sans Medium, Arial, sans-serif" font-size="24" font-weight="500" text-anchor="middle" fill="#ffffff" opacity="1" x="1392" y="331"><tspan dy="0" x="1392">Actiuni plata</tspan></text><g opacity="1"><text font-family="IBM Plex Sans, Arial, sans-serif" font-size="14" text-anchor="middle" fill="#adb3b3" x="1392" y="365.25"><tspan dy="0" x="1392">Procesare/rambursare plata</tspan></text></g><g id="System" opacity="1"><text font-family="Courier New, monospace" font-size="12" text-anchor="middle" fill="#adb3b3" x="1392" y="396.6552734375"><tspan dy="0" x="1392">System</tspan></text></g></a><a href="https://app.icepanel.io/landscapes/BpYYe5KSf3H1N1RYF9RQ/versions/latest/model/objects?object=mdBHdiJHsj&amp;focus=mdBHdiJHsj" id="Actiuni vanzator" target="_blank"><rect width="256" height="128" rx="8" ry="8" fill-opacity="0.8" fill="#1f2121" stroke-opacity="1" stroke-width="1" stroke="#434647" opacity="1" x="672" y="672"></rect><text font-family="IBM Plex Sans Medium, Arial, sans-serif" font-size="24" font-weight="500" text-anchor="middle" fill="#ffffff" opacity="1" x="800" y="723.0000000000001"><tspan dy="0" x="800">Actiuni vanzator</tspan></text><g opacity="1"><text font-family="IBM Plex Sans, Arial, sans-serif" font-size="14" text-anchor="middle" fill="#adb3b3" x="800.0000000000001" y="757.2500000000001"><tspan dy="0" x="800.0000000000001">Gestionare anunturi de produse</tspan></text></g><g id="System" opacity="1"><text font-family="Courier New, monospace" font-size="12" text-anchor="middle" fill="#adb3b3" x="800" y="788.6552734375"><tspan dy="0" x="800">System</tspan></text></g></a><a href="https://app.icepanel.io/landscapes/BpYYe5KSf3H1N1RYF9RQ/versions/latest/model/objects?object=4gyFRArtZn&amp;focus=4gyFRArtZn" id="Actiuni admin" target="_blank"><rect width="256" height="128" rx="8" ry="8" fill-opacity="0.8" fill="#1f2121" stroke-opacity="1" stroke-width="1" stroke="#434647" opacity="1" x="1120" y="712"></rect><text font-family="IBM Plex Sans Medium, Arial, sans-serif" font-size="24" font-weight="500" text-anchor="middle" fill="#ffffff" opacity="1" x="1248.0000000000002" y="763.0000000000001"><tspan dy="0" x="1248.0000000000002">Actiuni admin</tspan></text><g opacity="1"><text font-family="IBM Plex Sans, Arial, sans-serif" font-size="13" text-anchor="middle" fill="#adb3b3" x="1248.0000000000002" y="789.375"><tspan dy="0" x="1248.0000000000002">Aprobare/respingere retururi, produse,</tspan></text><text font-family="IBM Plex Sans, Arial, sans-serif" font-size="13" text-anchor="middle" fill="#adb3b3" x="1248.0000000000002" y="804.375"><tspan dy="0" x="1248.0000000000002">comenzi</tspan></text></g><g id="System" opacity="1"><text font-family="Courier New, monospace" font-size="12" text-anchor="middle" fill="#adb3b3" x="1248" y="828.6552734375"><tspan dy="0" x="1248">System</tspan></text></g></a><a href="https://app.icepanel.io/landscapes/BpYYe5KSf3H1N1RYF9RQ/versions/latest/model/objects?object=yX3HxWLjtg&amp;focus=yX3HxWLjtg" id="Client" target="_blank"><rect width="56" height="56" rx="8" ry="8" fill-opacity="0.8" fill="#1f2121" stroke-opacity="1" stroke-width="1" stroke="#434647" opacity="1" x="396" y="120"></rect><rect width="256" height="96" rx="8" ry="8" fill-opacity="0.8" fill="#1f2121" stroke-opacity="1" stroke-width="1" stroke="#434647" opacity="1" x="296" y="184"></rect><path d="M424 149.71428571428572C427.7875 149.71428571428572 430.8571428571429 146.64464285714286 430.8571428571429 142.85714285714286C430.8571428571429 139.06964285714287 427.7875 136 424 136C420.2125 136 417.1428571428571 139.06964285714287 417.1428571428571 142.85714285714286C417.1428571428571 146.64464285714286 420.2125 149.71428571428572 424 149.71428571428572ZM428.8 151.42857142857144L427.90535714285716 151.42857142857144C426.71607142857147 151.975 425.3928571428571 152.28571428571428 424 152.28571428571428C422.6071428571429 152.28571428571428 421.2892857142857 151.975 420.09464285714284 151.42857142857144L419.2 151.42857142857144C415.225 151.42857142857144 412 154.6535714285714 412 158.62857142857143L412 160.85714285714286C412 162.27678571428572 413.1517857142857 163.42857142857144 414.57142857142856 163.42857142857144L433.42857142857144 163.42857142857144C434.8482142857143 163.42857142857144 436 162.27678571428572 436 160.85714285714286L436 158.62857142857143C436 154.6535714285714 432.775 151.42857142857144 428.8 151.42857142857144Z " fill="#ffffff" opacity="1"></path><text font-family="IBM Plex Sans Medium, Arial, sans-serif" font-size="24" font-weight="500" text-anchor="middle" fill="#ffffff" opacity="1" x="424" y="232"><tspan dy="0" x="424">Client</tspan></text><g id="Actor" opacity="1"><text font-family="Courier New, monospace" font-size="12" text-anchor="middle" fill="#adb3b3" x="424" y="268.6552734375"><tspan dy="0" x="424">Actor</tspan></text></g></a><a href="https://app.icepanel.io/landscapes/BpYYe5KSf3H1N1RYF9RQ/versions/latest/model/objects?object=ZmKgcIF5wX&amp;focus=ZmKgcIF5wX" id="Vanzator" target="_blank"><rect width="56" height="56" rx="8" ry="8" fill-opacity="0.8" fill="#1f2121" stroke-opacity="1" stroke-width="1" stroke="#434647" opacity="1" x="132" y="368"></rect><rect width="256" height="96" rx="8" ry="8" fill-opacity="0.8" fill="#1f2121" stroke-opacity="1" stroke-width="1" stroke="#434647" opacity="1" x="32" y="432"></rect><path d="M160 397.7142857142857C163.7875 397.7142857142857 166.85714285714286 394.64464285714286 166.85714285714286 390.85714285714283C166.85714285714286 387.06964285714287 163.7875 384 160 384C156.2125 384 153.14285714285714 387.06964285714287 153.14285714285714 390.85714285714283C153.14285714285714 394.64464285714286 156.2125 397.7142857142857 160 397.7142857142857ZM164.8 399.42857142857144L163.90535714285716 399.42857142857144C162.71607142857144 399.975 161.39285714285714 400.2857142857143 160 400.2857142857143C158.60714285714286 400.2857142857143 157.2892857142857 399.975 156.09464285714284 399.42857142857144L155.2 399.42857142857144C151.225 399.42857142857144 148 402.6535714285714 148 406.62857142857143L148 408.85714285714283C148 410.2767857142857 149.15178571428572 411.42857142857144 150.57142857142856 411.42857142857144L169.42857142857142 411.42857142857144C170.84821428571428 411.42857142857144 172 410.2767857142857 172 408.85714285714283L172 406.62857142857143C172 402.6535714285714 168.775 399.42857142857144 164.8 399.42857142857144Z " fill="#ffffff" opacity="1"></path><text font-family="IBM Plex Sans Medium, Arial, sans-serif" font-size="24" font-weight="500" text-anchor="middle" fill="#ffffff" opacity="1" x="160" y="480"><tspan dy="0" x="160">Vanzator</tspan></text><g id="Actor" opacity="1"><text font-family="Courier New, monospace" font-size="12" text-anchor="middle" fill="#adb3b3" x="160" y="516.6552734375"><tspan dy="0" x="160">Actor</tspan></text></g></a><a href="https://app.icepanel.io/landscapes/BpYYe5KSf3H1N1RYF9RQ/versions/latest/model/objects?object=x1s2SFl2bi&amp;focus=x1s2SFl2bi" id="Admin" target="_blank"><rect width="56" height="56" rx="8" ry="8" fill-opacity="0.8" fill="#1f2121" stroke-opacity="1" stroke-width="1" stroke="#434647" opacity="1" x="428" y="864"></rect><rect width="256" height="96" rx="8" ry="8" fill-opacity="0.8" fill="#1f2121" stroke-opacity="1" stroke-width="1" stroke="#434647" opacity="1" x="328" y="928"></rect><path d="M456 893.7142857142857C459.7875 893.7142857142857 462.8571428571429 890.6446428571428 462.8571428571429 886.8571428571429C462.8571428571429 883.0696428571429 459.7875 880 456 880C452.2125 880 449.1428571428571 883.0696428571429 449.1428571428571 886.8571428571429C449.1428571428571 890.6446428571428 452.2125 893.7142857142857 456 893.7142857142857ZM460.8 895.4285714285714L459.90535714285716 895.4285714285714C458.71607142857147 895.975 457.3928571428571 896.2857142857143 456 896.2857142857143C454.6071428571429 896.2857142857143 453.2892857142857 895.975 452.09464285714284 895.4285714285714L451.2 895.4285714285714C447.225 895.4285714285714 444 898.6535714285715 444 902.6285714285714L444 904.8571428571429C444 906.2767857142857 445.1517857142857 907.4285714285714 446.57142857142856 907.4285714285714L465.42857142857144 907.4285714285714C466.8482142857143 907.4285714285714 468 906.2767857142857 468 904.8571428571429L468 902.6285714285714C468 898.6535714285715 464.775 895.4285714285714 460.8 895.4285714285714Z " fill="#ffffff" opacity="1"></path><text font-family="IBM Plex Sans Medium, Arial, sans-serif" font-size="24" font-weight="500" text-anchor="middle" fill="#ffffff" opacity="1" x="456" y="976"><tspan dy="0" x="456">Admin</tspan></text><g id="Actor" opacity="1"><text font-family="Courier New, monospace" font-size="12" text-anchor="middle" fill="#adb3b3" x="456" y="1012.6552734375"><tspan dy="0" x="456">Actor</tspan></text></g></a><a href="https://app.icepanel.io/landscapes/BpYYe5KSf3H1N1RYF9RQ/versions/latest/model/objects?object=Ns2MC6Xx0d&amp;focus=Ns2MC6Xx0d" id="Baza de date" target="_blank"><rect width="256" height="128" rx="8" ry="8" fill-opacity="0.8" fill="#1f2121" stroke-opacity="1" stroke-width="1" stroke="#434647" opacity="1" x="1088" y="480"></rect><text font-family="IBM Plex Sans Medium, Arial, sans-serif" font-size="24" font-weight="500" text-anchor="middle" fill="#ffffff" opacity="1" x="1216.0000000000002" y="531"><tspan dy="0" x="1216.0000000000002">Baza de date</tspan></text><g opacity="1"><text font-family="IBM Plex Sans, Arial, sans-serif" font-size="14" text-anchor="middle" fill="#adb3b3" x="1216.0000000000002" y="565.2500000000001"><tspan dy="0" x="1216.0000000000002">Contine produsele, conturile</tspan></text></g><g id="System" opacity="1"><text font-family="Courier New, monospace" font-size="12" text-anchor="middle" fill="#adb3b3" x="1216" y="596.6552734375"><tspan dy="0" x="1216">System</tspan></text></g></a><g id="realizeaza"><polygon points="672,71.99999999999997 664,87.99999999999997 680,87.99999999999997 672,71.99999999999997" fill="#adb3b3" opacity="1" transform="matrix(6.123233995736766e-17,1,-1,6.123233995736766e-17,752,-528)"></polygon><circle r="4" fill="#adb3b3" opacity="1" cx="552" cy="236"></circle></g><g id="intra in cont"><polygon points="664,456 656,472 672,472 664,456" fill="#adb3b3" opacity="1" transform="matrix(6.123233995736766e-17,1,-1,6.123233995736766e-17,1128,-136)"></polygon><circle r="4" fill="#adb3b3" opacity="1" cx="552" cy="236"></circle></g><g id="realizeaza"><polygon points="663.6259649895657,663.536654971301 655.6259649895657,679.536654971301 671.6259649895657,679.536654971301 663.6259649895657,663.536654971301" fill="#adb3b3" opacity="1" transform="matrix(-0.011637802934816269,0.9999322784783229,-0.9999322784783229,-0.011637802934816269,1343.2148674623136,80.14108560119121)"></polygon><circle r="4" fill="#adb3b3" opacity="1" cx="288" cy="484"></circle></g><g id="intra in cont"><polygon points="663.8997978029108,455.8750505024737 655.8997978029108,471.8750505024737 671.8997978029108,471.8750505024737 663.8997978029108,455.8750505024737" fill="#adb3b3" opacity="1" transform="matrix(-0.003127650326354126,0.9999951088897565,-0.9999951088897565,-0.003127650326354126,1129.949267186609,-134.47073284532843)"></polygon><circle r="4" fill="#adb3b3" opacity="1" cx="288" cy="484"></circle></g><g id="intra in cont"><polygon points="664,456 656,472 672,472 664,456" fill="#adb3b3" opacity="1" transform="matrix(6.123233995736766e-17,1,-1,6.123233995736766e-17,1128,-136)"></polygon><circle r="4" fill="#adb3b3" opacity="1" cx="584" cy="980"></circle></g><g id="realizeaza"><polygon points="1112.2125933237812,704.2671167661601 1104.2125933237812,720.2671167661601 1120.2125933237812,720.2671167661601 1112.2125933237812,704.2671167661601" fill="#adb3b3" opacity="1" transform="matrix(0.006660175780669845,0.9999778207833264,-0.9999778207833264,0.006660175780669845,1816.8439652961704,-340.878468113895)"></polygon><circle r="4" fill="#adb3b3" opacity="1" cx="584" cy="980"></circle></g><g id="utilizat de"><polygon points="1063.8493149043957,400.19929757852464 1055.8493149043957,416.19929757852464 1071.8493149043957,416.19929757852464 1063.8493149043957,400.19929757852464" fill="#adb3b3" opacity="1" transform="matrix(0.9999804530369207,-0.006252483032744124,0.006252483032744124,0.9999804530369207,-2.3307591989409957,6.460224893205691)"></polygon><circle r="4" fill="#adb3b3" opacity="1" cx="952" cy="1152"></circle></g><g id="utilizat de"><polygon points="1391.8438409227788,408.20647720678033 1383.8438409227788,424.20647720678033 1399.8438409227788,424.20647720678033 1391.8438409227788,408.20647720678033" fill="#adb3b3" opacity="1" transform="matrix(0.9999790133526472,-0.006478646021075598,0.006478646021075598,0.9999790133526472,-2.459256056252343,8.81935324055695)"></polygon><circle r="4" fill="#adb3b3" opacity="1" cx="1464" cy="968"></circle></g><g id="Foloseste (pentru comenzi)"><polygon points="1328,200 1320,216 1336,216 1328,200" fill="#adb3b3" opacity="1" transform="matrix(-1,1.2246467991473532e-16,-1.2246467991473532e-16,-1,2720,479.99999999999983)"></polygon><circle r="4" fill="#adb3b3" opacity="1" cx="936" cy="144"></circle></g><g id="Foloseste (pentru comenzi)"><polygon points="1000.184133075096,191.75689768999672 992.184133075096,207.75689768999672 1008.184133075096,207.75689768999672 1000.184133075096,191.75689768999672" fill="#adb3b3" opacity="1" transform="matrix(-0.999970865442038,0.007633365385053178,-0.007633365385053178,-0.999970865442038,2065.61874361767,456.1165399974516)"></polygon><circle r="4" fill="#adb3b3" opacity="1" cx="936" cy="176"></circle></g><g id="Utilizeaza"><polygon points="1216,608 1208,624 1224,624 1216,608" fill="#adb3b3" opacity="1" transform="matrix(1,0,0,1,0,0)"></polygon><circle r="4" fill="#adb3b3" opacity="1" cx="1248" cy="712"></circle></g><g id="Utilizeaza"><polygon points="1079.7606479614255,471.7025346609886 1071.7606479614255,487.70253466098853 1087.7606479614255,487.70253466098853 1079.7606479614255,471.7025346609886" fill="#adb3b3" opacity="1" transform="matrix(-0.007458887787631165,0.9999721821095683,-0.9999721821095683,-0.007458887787631165,1567.7432264022073,-532.2122350228506)"></polygon><circle r="4" fill="#adb3b3" opacity="1" cx="928" cy="528"></circle></g><g id="Utilizeaza"><polygon points="1152,400 1144,416 1160,416 1152,400" fill="#adb3b3" opacity="1" transform="matrix(-1,1.2246467991473532e-16,-1.2246467991473532e-16,-1,2368,879.9999999999998)"></polygon><circle r="4" fill="#adb3b3" opacity="1" cx="1328" cy="408"></circle></g><g id="Trimite cereri"><polygon points="1111.9225981006557,671.9034286676027 1103.9225981006557,687.9034286676027 1119.9225981006557,687.9034286676027 1111.9225981006557,671.9034286676027" fill="#adb3b3" opacity="1" transform="matrix(-0.0024166193329418755,0.9999970799712365,-0.9999970799712365,-0.0024166193329418755,1794.58856033757,-366.29561643909835)"></polygon><circle r="4" fill="#adb3b3" opacity="1" cx="928" cy="736"></circle></g><g id="Trimite cereri"><polygon points="1120.23878389662,631.6856597260416 1112.23878389662,647.6856597260416 1128.23878389662,647.6856597260416 1120.23878389662,631.6856597260416" fill="#adb3b3" opacity="1" transform="matrix(-0.999951150142721,0.009884195882793035,-0.009884195882793035,-0.999951150142721,2310.4277651889915,1332.582142396183)"></polygon><circle r="4" fill="#adb3b3" opacity="1" cx="808" cy="208"></circle></g></g></svg>